<svg id="visual" viewBox="0 0 900 600" width="900" height="600" xmlns="http://www.w3.org/2000/svg" xmlns:xlink="http://www.w3.org/1999/xlink" version="1.1"><path d="M800 600L845 514L791 429L854 343L764 257L782 171L818 86L836 0L900 0L900 86L900 171L900 257L900 343L900 429L900 514L900 600Z" fill="#e6e6e6"></path><path d="M710 600L701 514L683 429L782 343L719 257L701 171L701 86L683 0L837 0L819 86L783 171L765 257L855 343L792 429L846 514L801 600Z" fill="#c4c4c4"></path><path d="M647 600L593 514L359 429L530 343L503 257L548 171L449 86L476 0L684 0L702 86L702 171L720 257L783 343L684 429L702 514L711 600Z" fill="#a3a3a3"></path><path d="M467 600L449 514L296 429L341 343L368 257L377 171L341 86L341 0L477 0L450 86L549 171L504 257L531 343L360 429L594 514L648 600Z" fill="#838383"></path><path d="M368 600L350 514L233 429L242 343L314 257L269 171L287 86L278 0L342 0L342 86L378 171L369 257L342 343L297 429L450 514L468 600Z" fill="#646464"></path><path d="M89 600L116 514L35 429L107 343L53 257L116 171L80 86L107 0L279 0L288 86L270 171L315 257L243 343L234 429L351 514L369 600Z" fill="#474747"></path><path d="M0 600L0 514L0 429L0 343L0 257L0 171L0 86L0 0L108 0L81 86L117 171L54 257L108 343L36 429L117 514L90 600Z" fill="#2c2c2c"></path></svg>